<svg height="512pt" viewBox="0 0 512 512" width="512pt" xmlns="http://www.w3.org/2000/svg"><path d="m512 315v57c0 11.046875-8.953125 20-20 20h-56c-11.046875 0-20-8.953125-20-20s8.953125-20 20-20h36v-37c0-11.046875 8.953125-20 20-20s20 8.953125 20 20zm-276-98c11.046875 0 20-8.953125 20-20v-45h20c11.046875 0 20-8.953125 20-20v-112c0-11.289062-9.351562-20.390625-20.730469-19.9882812-10.835937.3867192-19.269531 9.6210932-19.269531 20.4687502v15.519531h-20c-11.046875 0-20 8.953125-20 20s8.953125 20 20 20h20v36h-20c-11.046875 0-20 8.953125-20 20v65c0 11.046875 8.953125 20 20 20zm-216 78c11.046875 0 20-8.953125 20-20v-20h21c11.046875 0 20-8.953125 20-20s-8.953125-20-20-20h-41c-11.046875 0-20 8.953125-20 20v40c0 11.046875 8.953125 20 20 20zm296-40h54v59.519531c0 10.847657 8.433594 20.082031 19.269531 20.46875 11.378907.402344 20.730469-8.699219 20.730469-19.988281v-20h21c11.046875 0 20-8.953125 20-20s-8.953125-20-20-20h-21v-20c0-11.046875-8.953125-20-20-20h-74c-11.046875 0-20 8.953125-20 20s8.953125 20 20 20zm176-40c-11.046875 0-20 8.953125-20 20s8.953125 20 20 20 20-8.953125 20-20-8.953125-20-20-20zm-176 80c-11.046875 0-20 8.953125-20 20v37h-10c-11.046875 0-20 8.953125-20 20s8.953125 20 20 20h30c11.046875 0 20-8.953125 20-20v-57c0-11.046875-8.953125-20-20-20zm0 177h-20v-20c0-11.046875-8.953125-20-20-20h-20v-20c0-11.046875-8.953125-20-20-20s-20 8.953125-20 20v40c0 11.046875 8.953125 20 20 20h20v20c0 11.046875 8.953125 20 20 20h40c11.046875 0 20-8.953125 20-20s-8.953125-20-20-20zm80-40c0-11.046875-8.953125-20-20-20h-10c-11.046875 0-20 8.953125-20 20s8.953125 20 20 20h10c11.046875 0 20-8.953125 20-20zm96 40h-16v-20c0-11.046875-8.953125-20-20-20s-20 8.953125-20 20v20h-40c-11.046875 0-20 8.953125-20 20s8.953125 20 20 20h96c11.046875 0 20-8.953125 20-20s-8.953125-20-20-20zm-256-140c11.046875 0 20-8.953125 20-20v-37c0-11.046875-8.953125-20-20-20h-72v-19.519531c0-10.847657-8.433594-20.082031-19.269531-20.46875-11.378907-.402344-20.730469 8.699219-20.730469 19.988281v20h-10c-11.046875 0-20 8.953125-20 20s8.953125 20 20 20h102v17c0 11.046875 8.953125 20 20 20zm-236-212v-60c0-33.085938 26.914062-60 60-60h60c33.085938 0 60 26.914062 60 60v60c0 33.085938-26.914062 60-60 60h-60c-33.085938 0-60-26.914062-60-60zm40 0c0 11.027344 8.972656 20 20 20h60c11.027344 0 20-8.972656 20-20v-60c0-11.027344-8.972656-20-20-20h-60c-11.027344 0-20 8.972656-20 20zm50-10c11.046875 0 20-8.953125 20-20s-8.953125-20-20-20-20 8.953125-20 20 8.953125 20 20 20zm422-50v60c0 33.085938-26.914062 60-60 60h-60c-33.085938 0-60-26.914062-60-60v-60c0-33.085938 26.914062-60 60-60h60c33.085938 0 60 26.914062 60 60zm-40 0c0-11.027344-8.972656-20-20-20h-60c-11.027344 0-20 8.972656-20 20v60c0 11.027344 8.972656 20 20 20h60c11.027344 0 20-8.972656 20-20zm-50 10c-11.046875 0-20 8.953125-20 20s8.953125 20 20 20 20-8.953125 20-20-8.953125-20-20-20zm-242 322v60c0 33.085938-26.914062 60-60 60h-60c-33.085938 0-60-26.914062-60-60v-60c0-33.085938 26.914062-60 60-60h60c33.085938 0 60 26.914062 60 60zm-40 0c0-11.027344-8.972656-20-20-20h-60c-11.027344 0-20 8.972656-20 20v60c0 11.027344 8.972656 20 20 20h60c11.027344 0 20-8.972656 20-20zm-50 10c-11.046875 0-20 8.953125-20 20s8.953125 20 20 20 20-8.953125 20-20-8.953125-20-20-20zm0 0"/></svg>